<svg xmlns="http://www.w3.org/2000/svg" width="42.25" height="42" viewBox="0 0 42.25 42">
  <g id="about_us_home" data-name="about us_home" transform="translate(-7.75 -422.473)">
    <rect id="Rectangle_3947" data-name="Rectangle 3947" width="42" height="42" transform="translate(8 422.473)" fill="#8087b7" opacity="0"/>
    <g id="noun-info-6553140" transform="translate(5.5 425.973)">
      <path id="Path_10022" data-name="Path 10022" d="M33.152,17.826A15.326,15.326,0,1,1,17.826,2.5,15.34,15.34,0,0,1,33.152,17.826ZM17.826,4.92A12.906,12.906,0,1,0,30.732,17.826,12.9,12.9,0,0,0,17.826,4.92Zm1.613,20.843V16.084a1.6,1.6,0,0,0-1.613-1.613h0a1.6,1.6,0,0,0-1.613,1.613v9.679a1.6,1.6,0,0,0,1.613,1.613h0A1.6,1.6,0,0,0,19.439,25.763ZM17.826,8.275a2.259,2.259,0,1,0,2.259,2.259A2.245,2.245,0,0,0,17.826,8.275Z" transform="translate(0 0)" fill="#fff" stroke="#e63431" stroke-width="0.5"/>
    </g>
  </g>
</svg>
