<svg id="apple" xmlns="http://www.w3.org/2000/svg" width="19.054" height="22.577" viewBox="0 0 19.054 22.577">
  <path id="Path_1054" data-name="Path 1054" d="M21.02,18.2v-.154a4.839,4.839,0,0,1-2.856-4.534A4.9,4.9,0,0,1,20.3,9.374l.063-.031a5.129,5.129,0,0,0-4.018-2.22c-1.318,0-2.417,1.264-4.237,1.264-1.444,0-2.041-1.2-3.61-1.2a6.707,6.707,0,0,0-6.5,6.6,17.154,17.154,0,0,0,2.135,7.681c1.068,1.943,2.386,3.208,3.861,3.208,1.067,0,2.322-.956,3.829-.956,1.318,0,2.543.864,3.735.864,2.857,0,5.493-3.64,5.493-6.075C21.052,18.381,21.02,18.288,21.02,18.2Z" transform="translate(-1.998 -2.097)" fill="#282b3c" fill-rule="evenodd"/>
  <path id="Path_1055" data-name="Path 1055" d="M16.19,5.891C18.325,5.244,20.3,3.67,20.3.925c0-.216-.031-.493-.063-.8L20.209,0A5.12,5.12,0,0,0,16.1,4.873a5.153,5.153,0,0,0,.094.895v.123Z" transform="translate(-6.148 0)" fill="#282b3c" fill-rule="evenodd"/>
</svg>
