<svg xmlns="http://www.w3.org/2000/svg" width="32" height="32" viewBox="0 0 32 32">
  <g id="attendee_footer" transform="translate(-28.411 -681.23)">
    <rect id="Rectangle_3952" data-name="Rectangle 3952" width="32" height="32" transform="translate(28.411 681.23)" fill="#8087b7" opacity="0"/>
    <path id="share_location_FILL0_wght400_GRAD0_opsz24" d="M95.82-851.068v-2.707a10.817,10.817,0,0,0,2.758-.778,12.505,12.505,0,0,0,2.521-1.455l1.962,1.962a14.554,14.554,0,0,1-3.417,2.013A13.413,13.413,0,0,1,95.82-851.068Zm9.135-4.94L103.06-857.9a10.021,10.021,0,0,0,1.421-2.453,11.706,11.706,0,0,0,.744-2.825H108a14.975,14.975,0,0,1-1.032,3.908A12.252,12.252,0,0,1,104.955-856.008Zm.271-9.88a11.7,11.7,0,0,0-.744-2.859,9.416,9.416,0,0,0-1.421-2.419l1.895-1.895a12.943,12.943,0,0,1,2.081,3.316,12.122,12.122,0,0,1,.964,3.857Zm-12.113,14.82a13.42,13.42,0,0,1-8.645-4.432A13,13,0,0,1,81-864.534a13.046,13.046,0,0,1,3.468-9.068,13.277,13.277,0,0,1,8.645-4.4v2.707a10.67,10.67,0,0,0-6.733,3.62,10.479,10.479,0,0,0-2.673,7.139,10.417,10.417,0,0,0,2.673,7.122,10.852,10.852,0,0,0,6.733,3.637Zm8.053-21.992a12.289,12.289,0,0,0-2.571-1.489,10.123,10.123,0,0,0-2.774-.744V-878a12.655,12.655,0,0,1,3.823.93,13.947,13.947,0,0,1,3.417,2.047ZM94.5-857.767a39.209,39.209,0,0,1-3.688-3.553,6.374,6.374,0,0,1-1.726-4.432,5.435,5.435,0,0,1,1.573-3.925A5.143,5.143,0,0,1,94.5-871.3a5.143,5.143,0,0,1,3.84,1.624,5.435,5.435,0,0,1,1.573,3.925,6.374,6.374,0,0,1-1.726,4.432A39.209,39.209,0,0,1,94.5-857.767Zm0-6.767a1.4,1.4,0,0,0,1.032-.423,1.4,1.4,0,0,0,.423-1.032A1.421,1.421,0,0,0,95.532-867a1.377,1.377,0,0,0-1.032-.44,1.377,1.377,0,0,0-1.032.44,1.421,1.421,0,0,0-.423,1.015,1.4,1.4,0,0,0,.423,1.032A1.4,1.4,0,0,0,94.5-864.534Z" transform="translate(-49.589 1562.128)" fill="#bababa" stroke="#fff" stroke-width="0.3"/>
  </g>
</svg>
