<svg xmlns="http://www.w3.org/2000/svg" width="19.354" height="19.095" viewBox="0 0 19.354 19.095">
  <path id="date_icon_white" d="M2.15,19.1A2.153,2.153,0,0,1,0,16.945V4.3A2.153,2.153,0,0,1,2.15,2.15h.9V3.226a1.613,1.613,0,0,0,3.226,0V2.15H8.064V3.226a1.613,1.613,0,0,0,3.226,0V2.15h1.792V3.226a1.613,1.613,0,0,0,3.226,0V2.15h.9a2.153,2.153,0,0,1,2.15,2.15V16.945A2.153,2.153,0,0,1,17.2,19.1ZM1.434,7.168v9.777a.717.717,0,0,0,.717.717H17.2a.717.717,0,0,0,.717-.717V7.168a.717.717,0,0,0-.717-.717H2.15A.717.717,0,0,0,1.434,7.168Zm9.319,9.061a.717.717,0,0,1-.717-.717v-.717a.717.717,0,0,1,.717-.717h1.434a.717.717,0,0,1,.717.717v.717a.717.717,0,0,1-.717.717Zm-3.584,0a.717.717,0,0,1-.717-.717v-.717a.717.717,0,0,1,.717-.717H8.6a.717.717,0,0,1,.717.717v.717a.717.717,0,0,1-.717.717Zm-3.584,0a.717.717,0,0,1-.717-.717v-.717a.717.717,0,0,1,.717-.717H5.017a.717.717,0,0,1,.717.717v.717a.717.717,0,0,1-.717.717Zm10.752-3.1a.717.717,0,0,1-.717-.717V11.7a.717.717,0,0,1,.717-.717H15.77a.717.717,0,0,1,.717.717v.717a.717.717,0,0,1-.717.717Zm-3.584,0a.717.717,0,0,1-.717-.717V11.7a.717.717,0,0,1,.717-.717h1.434a.717.717,0,0,1,.717.717v.717a.717.717,0,0,1-.717.717Zm-3.584,0a.717.717,0,0,1-.717-.717V11.7a.717.717,0,0,1,.717-.717H8.6a.717.717,0,0,1,.717.717v.717a.717.717,0,0,1-.717.717Zm-3.584,0a.717.717,0,0,1-.717-.717V11.7a.717.717,0,0,1,.717-.717H5.017a.716.716,0,0,1,.717.717v.717a.717.717,0,0,1-.717.717Zm3.584-3.1a.717.717,0,0,1-.717-.717V8.6a.717.717,0,0,1,.717-.717H8.6a.717.717,0,0,1,.717.717v.717a.717.717,0,0,1-.717.717Zm7.168,0a.717.717,0,0,1-.717-.717V8.6a.717.717,0,0,1,.717-.717H15.77a.717.717,0,0,1,.717.717v.717a.717.717,0,0,1-.717.717Zm-3.584,0a.717.717,0,0,1-.717-.717V8.6a.717.717,0,0,1,.717-.717h1.434A.717.717,0,0,1,12.9,8.6v.717a.717.717,0,0,1-.717.717Zm2.867-6.81V1.075a1.075,1.075,0,0,1,2.15,0v2.15a1.075,1.075,0,0,1-2.15,0Zm-5.017,0V1.075a1.075,1.075,0,0,1,2.15,0v2.15a1.075,1.075,0,0,1-2.15,0Zm-5.017,0V1.075a1.075,1.075,0,0,1,2.15,0v2.15a1.075,1.075,0,0,1-2.15,0Z" fill="#fff"/>
</svg>
