<svg id="Google" xmlns="http://www.w3.org/2000/svg" width="21.377" height="21.843" viewBox="0 0 21.377 21.843">
  <rect id="Rectangle_3780" data-name="Rectangle 3780" width="21.169" height="21.169" transform="translate(0.104 0.337)" fill="none"/>
  <path id="Path_1050" data-name="Path 1050" d="M5.84,40.486a6.457,6.457,0,0,1,.328-2.027L2.488,35.648a11,11,0,0,0,0,9.673L6.165,42.5a6.461,6.461,0,0,1-.325-2.019" transform="translate(-1.366 -29.565)" fill="#fbbc05" fill-rule="evenodd"/>
  <path id="Path_1051" data-name="Path 1051" d="M17.754,4.468a6.329,6.329,0,0,1,4.027,1.44L24.962,2.73A10.93,10.93,0,0,0,7.938,6.083l3.681,2.811a6.446,6.446,0,0,1,6.135-4.426" transform="translate(-6.816 0)" fill="#ea4335" fill-rule="evenodd"/>
  <path id="Path_1052" data-name="Path 1052" d="M17.754,80.307a6.445,6.445,0,0,1-6.135-4.426l-3.681,2.81a10.9,10.9,0,0,0,9.816,6.084,10.423,10.423,0,0,0,7.126-2.722l-3.494-2.7a6.766,6.766,0,0,1-3.632.955" transform="translate(-6.816 -62.932)" fill="#34a853" fill-rule="evenodd"/>
  <path id="Path_1053" data-name="Path 1053" d="M75.9,54.35a9.046,9.046,0,0,0-.249-1.986H65.457v4.22h5.866a4.918,4.918,0,0,1-2.234,3.265l3.494,2.7a10.862,10.862,0,0,0,3.314-8.2" transform="translate(-54.52 -43.428)" fill="#4285f4" fill-rule="evenodd"/>
</svg>
