<svg xmlns="http://www.w3.org/2000/svg" width="21.906" height="21.907" viewBox="0 0 21.906 21.907">
  <path id="logout_icon" d="M199.668,117.924l9.068,9.068a1.888,1.888,0,0,1,0,2.669l-9.065,9.065a1.887,1.887,0,0,1-2.67,0l-9.065-9.065a1.887,1.887,0,0,1,0-2.67L197,117.926a1.886,1.886,0,0,1,2.669,0Zm4.4,10.988a.925.925,0,0,0-.005-1.324l-4.449-4.37a.754.754,0,1,0-1.067,1.065l2.974,2.965c.146.146.095.264-.113.264h-8.2a.753.753,0,1,0,0,1.506h8.2c.208,0,.258.119.113.264l-2.974,2.965a.754.754,0,1,0,1.067,1.065Z" transform="translate(-187.381 -117.372)" fill="#6f6f6f" fill-rule="evenodd"/>
</svg>
