<svg xmlns="http://www.w3.org/2000/svg" width="32" height="32" viewBox="0 0 32 32">
  <g id="my_favourites_footer" transform="translate(-7)">
    <rect id="Rectangle_4064" data-name="Rectangle 4064" width="32" height="32" transform="translate(7)" fill="#f79622" opacity="0"/>
    <g id="Group_4883" data-name="Group 4883" transform="translate(1.085 -5.235)">
      <path id="Path_64" data-name="Path 64" d="M99.882,47.267V34.926h17.385v3.094a8.16,8.16,0,0,1,1.879.48v-7a1.382,1.382,0,0,0-1.382-1.382h-2.142V28.993a.973.973,0,0,0-.887-.989.937.937,0,0,0-.988.936v1.177H103.4V28.993a.973.973,0,0,0-.887-.989.937.937,0,0,0-.988.936v1.177H99.384A1.382,1.382,0,0,0,98,31.5V47.764a1.382,1.382,0,0,0,1.382,1.382H108.5a8.162,8.162,0,0,1-.48-1.879Zm13.866-15.949v.333h0a.937.937,0,1,0,1.874,0v-.333h0a1.527,1.527,0,1,1-1.874,0Zm-12.221,0v.333h0a.937.937,0,0,0,1.874,0v-.333h0a1.527,1.527,0,1,1-1.874,0Zm14.658,8.049a6.819,6.819,0,1,0,4.821,2,6.819,6.819,0,0,0-4.821-2Zm3.22,5.474L116.6,46.7a.727.727,0,0,1-.916-.092l-2.849-2.846-.369-.369h0a.651.651,0,1,1,.92-.922l.369.368,2.514,2.511,2.408-1.594h0a.653.653,0,0,1,.721,1.089Z" transform="translate(-88.087 -18.767)" fill="#bababa"/>
      <rect id="Rectangle_2" data-name="Rectangle 2" width="7.817" height="1.737" transform="translate(13.971 18.812)" fill="#bababa"/>
      <rect id="Rectangle_3" data-name="Rectangle 3" width="4.343" height="1.737" transform="translate(14.104 22.689)" fill="#bababa"/>
    </g>
  </g>
</svg>
