<svg id="notification_icon" xmlns="http://www.w3.org/2000/svg" width="21.411" height="26.304" viewBox="0 0 21.411 26.304">
  <path id="Path_9723" data-name="Path 9723" d="M158.806,39.749l-.558,5.645-.105.053a3.353,3.353,0,0,0,1.494,6.353h3.444v.306a3.365,3.365,0,0,0,6.729,0V51.8h3.443a3.353,3.353,0,0,0,1.5-6.353l-.1-.053-.565-5.645a7.649,7.649,0,0,0-4.885-6.406V31.919a2.753,2.753,0,1,0-5.505,0v1.424a7.652,7.652,0,0,0-4.886,6.406Zm9.168,12.357a1.529,1.529,0,0,1-3.059,0V51.8h3.059Zm4.282-12.173.582,5.809a1.514,1.514,0,0,0,.837,1.224l.256.122h0a1.52,1.52,0,0,1-.68,2.877H159.637a1.518,1.518,0,0,1-.678-2.875l.254-.122h0a1.522,1.522,0,0,0,.837-1.216l.582-5.811h0a5.842,5.842,0,0,1,11.623,0Zm-6.729-8.013a.918.918,0,1,1,1.835,0V32.9h0a7.057,7.057,0,0,0-1.835,0Z" transform="translate(-155.74 -29.166)" fill="#6f6f6f"/>
  <path id="Path_9724" data-name="Path 9724" d="M146.726,73.357h.019a.919.919,0,0,0,.918-.9,5.506,5.506,0,0,1,1.04-3.147,5.662,5.662,0,0,1,2.936-2.052.918.918,0,0,0-.536-1.754,7.474,7.474,0,0,0-3.868,2.72,7.324,7.324,0,0,0-1.407,4.194.919.919,0,0,0,.9.937Z" transform="translate(-145.828 -63.57)" fill="#6f6f6f"/>
  <path id="Path_9725" data-name="Path 9725" d="M432.316,67.361a5.667,5.667,0,0,1,2.936,2.052,5.507,5.507,0,0,1,1.045,3.147.919.919,0,0,0,.913.9h.019a.918.918,0,0,0,.9-.937,7.316,7.316,0,0,0-1.407-4.194,7.477,7.477,0,0,0-3.873-2.72.918.918,0,0,0-.531,1.754Z" transform="translate(-416.717 -63.669)" fill="#6f6f6f"/>
</svg>
