<svg id="outlook_calender" xmlns="http://www.w3.org/2000/svg" width="25.403" height="25.403" viewBox="0 0 25.403 25.403">
  <path id="Path_1047" data-name="Path 1047" d="M47.6,22.1h9.23a.932.932,0,0,1,.932.932V35.14a.932.932,0,0,1-.932.932H47.6Z" transform="translate(-32.358 -16.384)" fill="#1976d2"/>
  <rect id="Rectangle_3764" data-name="Rectangle 3764" width="8.891" height="9.87" transform="translate(15.242 8.864)" fill="#fff"/>
  <path id="Path_1048" data-name="Path 1048" d="M21.407,32.2,6.8,29.345V9.658L21.407,6.8Z" transform="translate(-6.8 -6.8)" fill="#1976d2"/>
  <path id="Path_1049" data-name="Path 1049" d="M19.8,28.05c-2.017,0-3.652,2.133-3.652,4.763s1.635,4.763,3.652,4.763,3.652-2.133,3.652-4.763S21.819,28.05,19.8,28.05Zm-.159,7.621c-1.052,0-1.905-1.28-1.905-2.858s.853-2.858,1.905-2.858,1.905,1.28,1.905,2.858S20.7,35.671,19.643,35.671Z" transform="translate(-12.657 -20.112)" fill="#fff"/>
  <rect id="Rectangle_3765" data-name="Rectangle 3765" width="1.715" height="1.842" transform="translate(15.272 16.345)" fill="#1976d2"/>
  <rect id="Rectangle_3766" data-name="Rectangle 3766" width="1.715" height="1.842" transform="translate(17.431 16.345)" fill="#1976d2"/>
  <rect id="Rectangle_3767" data-name="Rectangle 3767" width="1.715" height="1.842" transform="translate(19.591 16.345)" fill="#1976d2"/>
  <rect id="Rectangle_3768" data-name="Rectangle 3768" width="1.715" height="1.842" transform="translate(15.272 14.073)" fill="#1976d2"/>
  <rect id="Rectangle_3769" data-name="Rectangle 3769" width="1.715" height="1.842" transform="translate(17.431 14.073)" fill="#1976d2"/>
  <rect id="Rectangle_3770" data-name="Rectangle 3770" width="1.715" height="1.842" transform="translate(19.591 14.073)" fill="#1976d2"/>
  <rect id="Rectangle_3771" data-name="Rectangle 3771" width="1.715" height="1.842" transform="translate(21.751 14.073)" fill="#1976d2"/>
  <rect id="Rectangle_3772" data-name="Rectangle 3772" width="1.715" height="1.842" transform="translate(15.272 11.88)" fill="#1976d2"/>
  <rect id="Rectangle_3773" data-name="Rectangle 3773" width="1.715" height="1.842" transform="translate(17.431 11.88)" fill="#1976d2"/>
  <rect id="Rectangle_3774" data-name="Rectangle 3774" width="1.715" height="1.842" transform="translate(19.591 11.88)" fill="#1976d2"/>
  <rect id="Rectangle_3775" data-name="Rectangle 3775" width="1.715" height="1.842" transform="translate(21.751 11.88)" fill="#1976d2"/>
  <rect id="Rectangle_3776" data-name="Rectangle 3776" width="1.715" height="1.842" transform="translate(17.431 9.597)" fill="#1976d2"/>
  <rect id="Rectangle_3777" data-name="Rectangle 3777" width="1.715" height="1.842" transform="translate(19.591 9.597)" fill="#1976d2"/>
  <rect id="Rectangle_3778" data-name="Rectangle 3778" width="1.715" height="1.842" transform="translate(21.751 9.597)" fill="#1976d2"/>
</svg>
