<svg id="twitter" xmlns="http://www.w3.org/2000/svg" width="28.19" height="28.19" viewBox="0 0 28.19 28.19">
  <circle id="Ellipse_6" data-name="Ellipse 6" cx="14.095" cy="14.095" r="14.095" fill="#55acee"/>
  <path id="Path_9446" data-name="Path 9446" d="M23.63,9.671a7.283,7.283,0,0,1-2.078.56,3.566,3.566,0,0,0,1.592-1.966,7.324,7.324,0,0,1-2.3.862A3.641,3.641,0,0,0,18.207,8a3.586,3.586,0,0,0-3.616,3.558,3.658,3.658,0,0,0,.092.813A10.341,10.341,0,0,1,7.229,8.656a3.5,3.5,0,0,0-.492,1.789,3.553,3.553,0,0,0,1.61,2.963,3.659,3.659,0,0,1-1.637-.447c0,.015,0,.029,0,.045A3.578,3.578,0,0,0,9.61,16.5a3.754,3.754,0,0,1-.953.124,3.676,3.676,0,0,1-.679-.063,3.617,3.617,0,0,0,3.378,2.472,7.332,7.332,0,0,1-4.492,1.524A7.152,7.152,0,0,1,6,20.5a10.361,10.361,0,0,0,5.546,1.6A10.135,10.135,0,0,0,21.838,11.975c0-.152-.005-.309-.012-.459A7.378,7.378,0,0,0,23.63,9.671Z" transform="translate(-0.714 -0.953)" fill="#fff"/>
</svg>
